HIERARCHY
ROOT Hips
{
	OFFSET -3.958830 18.904000 13.208200
	CHANNELS 6 Xposition Yposition Zposition Zrotation Yrotation Xrotation 
	JOINT LHipJoint
	{
		OFFSET 0.000000 0.000000 0.000000
		CHANNELS 3 Zrotation Yrotation Xrotation
		JOINT LeftUpLeg
		{
			OFFSET 1.800000 -1.400000 0.085000
			CHANNELS 3 Zrotation Yrotation Xrotation
			JOINT LeftLeg
			{
				OFFSET 2.215000 -6.000000 0.000000
				CHANNELS 3 Zrotation Yrotation Xrotation
				JOINT LeftFoot
				{
					OFFSET 2.500000 -6.900000 0.000000
					CHANNELS 3 Zrotation Yrotation Xrotation
					JOINT LeftToeBase
					{
						OFFSET 0.200000 -0.500000 1.950000
						CHANNELS 3 Zrotation Yrotation Xrotation
						End Site
						{
							OFFSET 0.000000 0.000000 0.000000
						}
					}
				}
			}
		}
	}
	JOINT RHipJoint
	{
		OFFSET 0.000000 0.000000 0.000000
		CHANNELS 3 Zrotation Yrotation Xrotation
		JOINT RightUpLeg
		{
			OFFSET -1.800000 -1.400000 0.085000
			CHANNELS 3 Zrotation Yrotation Xrotation
			JOINT RightLeg
			{
				OFFSET -2.215000 -6.000000 0.000000
				CHANNELS 3 Zrotation Yrotation Xrotation
				JOINT RightFoot
				{
					OFFSET -2.500000 -6.900000 0.000000
					CHANNELS 3 Zrotation Yrotation Xrotation
					JOINT RightToeBase
					{
						OFFSET -0.200000 -0.500000 1.950000
						CHANNELS 3 Zrotation Yrotation Xrotation
						End Site
						{
							OFFSET 0.000000 0.000000 0.000000
						}
					}
				}
			}
		}
	}
	JOINT LowerBack
	{
		OFFSET 0.000000 0.000000 0.000000
		CHANNELS 3 Zrotation Yrotation Xrotation
		JOINT Spine
		{
			OFFSET -0.087000 1.940000 -0.288900
			CHANNELS 3 Zrotation Yrotation Xrotation
			JOINT Spine1
			{
				OFFSET 0.000000 1.950000 0.060000
				CHANNELS 3 Zrotation Yrotation Xrotation
				JOINT Neck
				{
					OFFSET 0.000000 0.000000 0.000000
					CHANNELS 3 Zrotation Yrotation Xrotation
					JOINT Neck1
					{
						OFFSET 0.000000 1.600000 0.340000
						CHANNELS 3 Zrotation Yrotation Xrotation
						JOINT Head
						{
							OFFSET 0.000000 1.667000 -0.240000
							CHANNELS 3 Zrotation Yrotation Xrotation
							End Site
							{
								OFFSET 0.000000 0.000000 0.000000
							}
						}
					}
				}
				JOINT LeftShoulder
				{
					OFFSET 0.000000 0.000000 0.000000
					CHANNELS 3 Zrotation Yrotation Xrotation
					JOINT LeftArm
					{
						OFFSET 2.700000 1.550000 -0.730000
						CHANNELS 3 Zrotation Yrotation Xrotation
						JOINT LeftForeArm
						{
							OFFSET 5.450000 0.000000 0.000000
							CHANNELS 3 Zrotation Yrotation Xrotation
							JOINT LeftHand
							{
								OFFSET 3.450000 0.000000 0.000000
								CHANNELS 3 Zrotation Yrotation Xrotation
								JOINT LeftHandIndex1
								{
									OFFSET 0.750000 0.000000 0.000000
									CHANNELS 3 Zrotation Yrotation Xrotation
									End Site
									{
										OFFSET 0.000000 0.000000 0.000000
									}
								}
							}
						}
					}
				}
				JOINT RightShoulder
				{
					OFFSET 0.000000 0.000000 0.000000
					CHANNELS 3 Zrotation Yrotation Xrotation
					JOINT RightArm
					{
						OFFSET -2.700000 1.550000 -0.730000
						CHANNELS 3 Zrotation Yrotation Xrotation
						JOINT RightForeArm
						{
							OFFSET -5.450000 0.000000 0.000000
							CHANNELS 3 Zrotation Yrotation Xrotation
							JOINT RightHand
							{
								OFFSET -3.450000 0.000000 0.000000
								CHANNELS 3 Zrotation Yrotation Xrotation
								JOINT RightHandIndex1
								{
									OFFSET -0.750000 0.000000 0.000000
									CHANNELS 3 Zrotation Yrotation Xrotation
									End Site
									{
										OFFSET 0.000000 0.000000 0.000000
									}
								}
							}
						}
					}
				}
			}
		}
	}
}
MOTION
Frames: 4
Frame Time: 0.016667
0.104200 16.557260 -1.164880 -3.602415 -0.141338 -3.101676 -15.134053 12.437247 3.786157 10.415871 -4.420352 -19.363758 -19.719093 16.754556 36.906117 0.862861 9.210217 1.372275 0.109120 0.049440 -0.038380 18.287601 -10.302353 3.019974 -8.571464 4.484570 -16.112708 21.738914 -15.045701 34.919054 -0.919222 -7.302021 1.810402 0.055750 0.272240 0.137820 -3.665935 -1.463463 -8.408323 9.774075 -0.361857 16.458333 -3.559415 1.892779 14.822600 2.910717 -3.387271 -17.208540 -7.687336 1.801569 33.576315 0.550020 -0.687420 -5.097220 -17.440912 -29.080899 9.958099 -42.199831 -9.597356 -4.371489 -12.943283 -22.128926 0.019837 -3.671603 3.060350 0.182340 0.129280 -0.039960 0.127010 12.362419 33.722905 15.005639 42.115282 4.222857 -9.951994 17.464377 30.220574 0.497243 2.162455 -1.408961 -0.092500 0.187120 0.078960 0.008320 
0.104990 16.542800 -1.166410 -3.662796 -0.114335 -3.228852 -15.136216 12.409023 3.816915 10.713636 -4.477888 -19.486889 -20.025616 17.033271 37.231754 0.894657 9.327547 1.331013 0.111110 0.053080 -0.036280 18.289360 -10.267180 3.028114 -8.755995 4.543898 -16.153645 22.084642 -15.307059 35.180418 -0.944361 -7.389587 1.777874 0.054700 0.265080 0.139790 -3.666535 -1.482656 -8.440520 9.914245 -0.442978 16.681932 -3.660621 1.876855 14.798437 2.967718 -3.423018 -17.287079 -7.790128 1.829761 33.672436 0.522390 -0.666180 -5.146020 -17.477094 -29.071334 9.978515 -41.814332 -9.370397 -4.481640 -12.967475 -22.302819 0.034177 -3.663238 3.064309 0.183910 0.124500 -0.033900 0.125780 12.280510 33.744714 15.061049 41.912811 3.984053 -10.055544 17.463612 30.363454 0.507056 2.163254 -1.409896 -0.087610 0.181840 0.076550 0.009100 
0.105680 16.517540 -1.168220 -3.742985 -0.133627 -3.502821 -15.142676 12.367485 3.866283 11.239757 -4.532582 -19.607632 -20.591687 17.523361 37.701306 0.942861 9.526138 1.262457 0.111330 0.053960 -0.035400 18.288500 -10.202395 3.046491 -9.127838 4.668540 -16.186374 22.748637 -15.789002 35.633079 -0.988711 -7.552750 1.722481 0.052260 0.254830 0.139570 -3.657364 -1.529233 -8.499672 10.103115 -0.537910 17.096436 -3.752842 1.880585 14.807177 3.064334 -3.526965 -17.470167 -8.071849 1.899447 33.952564 0.359350 -0.609680 -5.153820 -17.565622 -29.094620 10.020349 -41.068090 -8.948616 -4.636143 -13.019504 -22.512539 0.058169 -3.651468 3.064397 0.189610 0.118240 -0.027540 0.123260 12.190169 33.871460 15.208942 41.396602 3.490178 -10.227834 17.448034 30.587253 0.529411 2.157209 -1.407976 -0.084780 0.177030 0.076270 0.006650 
0.105110 16.484860 -1.171340 -3.771780 -0.139181 -3.883318 -15.158256 12.327634 3.928239 11.809692 -4.606625 -19.712677 -21.266429 18.123733 38.284410 1.003936 9.762984 1.181165 0.114150 0.057980 -0.030770 18.278812 -10.120645 3.066258 -9.600089 4.801378 -16.192461 23.519558 -16.369171 36.174593 -1.044759 -7.744813 1.656618 0.048660 0.240050 0.139940 -3.622686 -1.608869 -8.573180 10.125790 -0.629491 17.681008 -3.789220 1.882330 14.800628 3.184400 -3.598601 -17.702916 -8.321585 2.003608 34.347296 0.182680 -0.487950 -5.247370 -17.690545 -29.103475 10.075348 -40.058800 -8.362553 -4.840547 -13.056471 -22.800191 0.088277 -3.633841 3.065644 0.198530 0.108040 -0.016460 0.120260 12.096566 33.993547 15.377414 40.665651 2.882243 -10.421434 17.303026 30.895525 0.553283 2.149758 -1.404503 -0.079370 0.171040 0.074480 0.003670 
